<svg width="1600" height="589" viewBox="0 0 1600 589" fill="none" xmlns="http://www.w3.org/2000/svg">
<rect width="1600" height="589" fill="#181817"/>
<mask id="mask0_3_73" style="mask-type:alpha" maskUnits="userSpaceOnUse" x="0" y="0" width="1600" height="589">
<rect width="1600" height="589" fill="#181817"/>
</mask>
<g mask="url(#mask0_3_73)">
<g opacity="0.1">
<path d="M165.662 -76.1848C166.177 -57.4826 155.19 -20.643 107.123 -22.9027C47.0402 -25.7273 42.6261 1.455 40.9392 37.3379C39.2522 73.2208 13.4955 91.8728 -17.3815 90.4212C-48.2584 88.9696 -69.3916 98.2221 -71.3335 139.528" stroke="white" stroke-width="2"/>
<path d="M192.991 -45.1994C193.506 -26.4972 182.519 10.3424 134.452 8.08267C74.3693 5.25804 69.9552 32.4404 68.2683 68.3233C66.5813 104.206 40.8246 122.858 9.94763 121.407C-20.9293 119.955 -42.0625 129.207 -44.0044 170.514" stroke="white" stroke-width="2"/>
<path d="M221.627 -10.9382C222.142 7.76403 211.155 44.6036 163.088 42.3439C103.005 39.5193 98.5909 66.7016 96.904 102.584C95.2171 138.467 69.4603 157.119 38.5834 155.668C7.7064 154.216 -13.4268 163.469 -15.3687 204.775" stroke="white" stroke-width="2"/>
<path d="M145.955 -111.119C146.47 -92.4171 135.483 -55.5776 87.4161 -57.8373C27.3331 -60.6619 22.9189 -33.4796 21.232 2.4033C19.545 38.2862 -6.2117 56.9382 -37.0887 55.4866C-67.9657 54.035 -89.0989 63.2875 -91.0407 104.594" stroke="white" stroke-width="2"/>
<path d="M122.565 -143.503C123.079 -124.8 112.092 -87.9609 64.0256 -90.2206C3.94258 -93.0452 -0.471557 -65.8629 -2.15849 -29.98C-3.84542 5.90296 -29.6022 24.5549 -60.4791 23.1033C-91.3561 21.6518 -112.489 30.9043 -114.431 72.2104" stroke="white" stroke-width="2"/>
</g>
<g opacity="0.1">
<path d="M1698.21 393.29C1699.02 422.68 1681.75 480.573 1606.21 477.022C1511.79 472.583 1504.86 515.3 1502.2 571.69C1499.55 628.08 1459.08 657.392 1410.55 655.111C1362.03 652.829 1328.82 667.37 1325.77 732.282" stroke="white" stroke-width="2"/>
<path d="M1741.16 441.982C1741.96 471.373 1724.7 529.266 1649.16 525.715C1554.74 521.276 1547.8 563.993 1545.15 620.383C1542.5 676.773 1502.03 706.085 1453.5 703.804C1404.98 701.522 1371.77 716.063 1368.72 780.975" stroke="white" stroke-width="2"/>
<path d="M1786.16 495.824C1786.97 525.215 1769.7 583.108 1694.16 579.557C1599.74 575.118 1592.81 617.835 1590.15 674.225C1587.5 730.615 1547.03 759.926 1498.5 757.645C1449.98 755.364 1416.77 769.904 1413.72 834.817" stroke="white" stroke-width="2"/>
<path d="M1667.24 338.389C1668.05 367.78 1650.78 425.673 1575.24 422.122C1480.82 417.683 1473.89 460.4 1471.24 516.79C1468.59 573.18 1428.11 602.491 1379.59 600.21C1331.06 597.929 1297.85 612.469 1294.8 677.382" stroke="white" stroke-width="2"/>
<path d="M1630.48 287.499C1631.29 316.89 1614.02 374.783 1538.49 371.232C1444.07 366.793 1437.13 409.51 1434.48 465.9C1431.83 522.29 1391.35 551.601 1342.83 549.32C1294.3 547.039 1261.09 561.579 1258.04 626.492" stroke="white" stroke-width="2"/>
</g>
</g>
</svg>
