<svg width="225" height="93" viewBox="0 0 225 93" fill="none" xmlns="http://www.w3.org/2000/svg">
<rect opacity="0.1" x="0.698914" y="1.00488" width="223.298" height="90.5502" stroke="#2E4D59"/>
<path d="M111.778 53.2052H106.665V39.2864H111.778V53.2052ZM107.164 52.6968H111.279V39.7949H107.164V52.6968ZM118.894 53.2052H113.883V39.2864H124.352C125.852 39.1628 127.346 39.5914 128.561 40.4945C129.084 40.9818 129.49 41.5857 129.746 42.259C130.002 42.9323 130.102 43.6567 130.038 44.3758C130.113 45.6184 129.725 46.844 128.951 47.8077C128.035 48.8775 126.511 49.4286 124.421 49.4479C123.895 49.4622 119.951 49.4479 118.897 49.4479L118.894 53.2052ZM114.379 52.6968H118.394V48.9344H118.645C118.696 48.9344 123.817 48.9507 124.409 48.9344C126.356 48.9171 127.755 48.426 128.573 47.4671C129.262 46.5951 129.604 45.4915 129.532 44.3748C129.593 43.7305 129.508 43.0804 129.283 42.475C129.058 41.8697 128.699 41.3252 128.233 40.8839C127.106 40.0604 125.728 39.6738 124.345 39.7938H114.382L114.379 52.6968ZM123.291 46.3211H118.36V42.5322H123.324C123.676 42.4827 124.035 42.5246 124.366 42.6538C124.698 42.783 124.993 42.9955 125.222 43.2715C125.43 43.6243 125.529 44.0331 125.504 44.444C125.522 44.8254 125.442 45.205 125.269 45.5442C125.032 45.8349 124.726 46.0587 124.38 46.194C124.033 46.3294 123.659 46.3717 123.291 46.317V46.3211ZM118.86 45.8126H123.291C124.11 45.8126 124.618 45.6388 124.843 45.2808C124.966 45.0207 125.022 44.7325 125.005 44.444C125.027 44.141 124.963 43.838 124.82 43.5715L124.814 43.5623C124.576 43.2064 124.103 43.0407 123.324 43.0407H118.86V45.8126ZM139.152 53.4107C134.668 53.4107 131.991 52.2768 130.971 49.9452C130.804 49.4948 130.691 49.0257 130.634 48.548L130.59 48.2552H135.925L135.96 48.4687C136.001 48.6855 136.092 48.8896 136.224 49.0646C136.434 49.3239 137.138 49.7591 139.471 49.7591C142.275 49.7591 142.275 49.2578 142.275 48.9883C142.275 48.5338 141.951 48.3782 139.664 48.1301L139.229 48.0884C138.368 48.006 137.279 47.9013 136.782 47.8576C132.587 47.4712 130.714 46.1441 130.714 43.5562C130.714 40.8382 133.902 39.082 138.835 39.082C142.859 39.082 145.452 40.1619 146.539 42.2943C146.797 42.7903 146.971 43.3274 147.052 43.8826L147.087 44.1684H141.745L141.723 43.9386C141.702 43.759 141.627 43.5905 141.507 43.4566C141.308 43.1841 140.676 42.7336 138.717 42.7336C136.311 42.7336 135.979 43.0468 135.979 43.3844C135.979 43.8348 136.739 43.9945 139.175 44.2599C140.191 44.3443 141.824 44.5151 142.383 44.5843C145.9 44.9727 147.469 46.2672 147.469 48.7829C147.47 50.8929 146.027 53.4107 139.152 53.4107ZM131.173 48.7636C131.223 49.0989 131.309 49.4276 131.43 49.7438C132.358 51.8681 134.885 52.9022 139.152 52.9022C142.72 52.9022 146.974 52.1904 146.974 48.7829C146.974 46.5529 145.585 45.4486 142.33 45.0897C141.771 45.0205 140.148 44.8507 139.134 44.7653C136.537 44.4785 135.482 44.326 135.482 43.3844C135.482 42.4102 136.619 42.2252 138.719 42.2252C140.378 42.2252 141.449 42.5302 141.904 43.1454C142.028 43.297 142.122 43.4718 142.18 43.6599H146.508C146.421 43.2667 146.284 42.8868 146.099 42.5302C145.1 40.5789 142.66 39.5905 138.837 39.5905C134.207 39.5905 131.216 41.1473 131.216 43.5562C131.216 45.8543 132.895 46.9892 136.828 47.3512C137.327 47.3949 138.415 47.4996 139.278 47.583L139.715 47.6247C141.84 47.8525 142.777 47.9948 142.777 48.9883C142.777 50.0581 141.565 50.2675 139.473 50.2675C137.537 50.2675 136.315 49.9716 135.842 49.389C135.697 49.2032 135.587 48.991 135.519 48.7636H131.173ZM156.958 53.3934C151.744 53.3934 148.867 51.2468 148.867 47.3481V39.2864H153.913V47.3481C153.913 48.6853 155.089 49.452 157.137 49.452C159.095 49.452 160.31 48.6517 160.31 47.3654V39.2864H165.304V47.7752C165.309 51.3454 162.264 53.3934 156.955 53.3934H156.958ZM149.367 39.7949V47.3481C149.367 52.166 154.119 52.8849 156.958 52.8849C159.892 52.8849 164.813 52.2209 164.813 47.7752V39.7949H160.818V47.3654C160.818 48.9415 159.376 49.9604 157.145 49.9604C154.814 49.9604 153.422 48.9842 153.422 47.3481V39.7949H149.367ZM186.467 53.2052H181.704V46.921L179.004 53.2052H174.85L172.177 46.9332V53.2052H167.398V39.2864H173.684L176.95 46.9607L180.374 39.2864H186.473L186.467 53.2052ZM182.204 52.6968H185.967V39.7949H180.692L176.934 48.2135L173.353 39.7949H167.893V52.6968H171.674V44.4867L175.169 52.6999H178.665L182.198 44.4989L182.204 52.6968ZM42.2239 39.5406H37.6755V52.951H50.2442V49.3808H42.2239V39.5406ZM59.4251 39.2356C53.6191 39.2356 50.5658 42.037 50.5658 46.1502C50.5658 50.7973 53.7709 53.1544 59.4251 53.1544C65.6495 53.1544 68.2673 50.4211 68.2673 46.1502C68.2673 41.8133 65.3139 39.2335 59.4251 39.2335V39.2356ZM59.4081 42.7204C59.8033 42.7185 60.1983 42.7419 60.5906 42.7905L55.5058 47.9674C55.2652 47.4133 55.1478 46.8118 55.1622 46.2062C55.1622 44.1023 56.203 42.7183 59.4081 42.7183V42.7204ZM59.4251 49.7245C59.0442 49.7263 58.6637 49.7045 58.2854 49.6594L63.3792 44.4734C63.6109 45.0184 63.7217 45.6086 63.7039 46.2021C63.7039 48.2491 62.745 49.7225 59.4251 49.7225V49.7245ZM77.2794 47.8942H81.9607C81.8918 48.225 81.7481 48.5348 81.5412 48.7992C80.5707 49.6041 79.3321 49.9958 78.0844 49.8923C77.4563 49.9607 76.8213 49.8909 76.2221 49.6875C75.623 49.4842 75.0736 49.1521 74.6116 48.7138C74.1383 48.0069 73.9134 47.1581 73.9734 46.3048C73.8968 45.4107 74.1413 44.5187 74.6615 43.7942C75.3157 43.0417 76.4234 42.7173 78.0514 42.7173C79.0873 42.63 80.1218 42.9008 80.9879 43.4861C81.2608 43.7068 81.4649 44.0036 81.5751 44.3402H85.9169C85.8853 43.7855 85.7543 43.2413 85.5303 42.7346C84.4906 40.5819 82.0735 39.3007 77.9635 39.3007C74.3889 39.3007 71.9898 40.4111 70.6644 42.0858C69.7891 43.2953 69.3397 44.7698 69.3889 46.2713C69.3323 47.8067 69.7701 49.3189 70.6354 50.5777C71.9448 52.3063 74.277 53.1564 77.0796 53.1564C78.9428 53.2887 80.7934 52.7574 82.3142 51.6535L82.4321 52.951H86.0387V45.0073H77.2794V47.8942ZM96.2753 39.2325C90.4703 39.2325 87.416 42.034 87.416 46.1472C87.416 50.7943 90.6202 53.1514 96.2753 53.1514C102.501 53.1514 105.119 50.418 105.119 46.1472C105.119 41.8133 102.165 39.2335 96.2753 39.2335V39.2325ZM96.2593 42.7173C96.6441 42.7162 97.0287 42.7386 97.4109 42.7844L92.3461 47.944C92.1129 47.396 91.9995 46.8032 92.0135 46.2062C92.0095 44.1023 93.0542 42.7183 96.2593 42.7183V42.7173ZM96.2753 49.7215C95.8844 49.7232 95.4937 49.7 95.1057 49.6523L100.216 44.448C100.457 45.0002 100.572 45.6005 100.553 46.2041C100.555 48.2491 99.6002 49.7225 96.2753 49.7225V49.7215Z" fill="#181817"/>
</svg>
