<svg width="225" height="92" viewBox="0 0 225 92" fill="none" xmlns="http://www.w3.org/2000/svg">
<path d="M57.9685 56.4037L37.7667 42.1588C35.7195 40.7153 36.4154 37.7098 38.9682 37.003L60.4391 31.0461C60.8939 30.8783 61.3813 30.8239 61.8609 30.8872C62.3404 30.9506 62.7983 31.13 63.1964 31.4104C63.5945 31.6909 63.9215 32.0644 64.1501 32.4999C64.3787 32.9354 64.5025 33.4204 64.511 33.9146L63.2386 54.1153C63.0877 56.5131 60.0157 57.8472 57.9685 56.4037Z" fill="#E9327C"/>
<path d="M51.5571 59.9202L39.6556 36.1281C39.3835 35.5838 39.2638 34.9733 39.3096 34.3639C39.3554 33.7544 39.565 33.1698 39.9153 32.6744C40.2655 32.179 40.7428 31.7921 41.2944 31.5563C41.8461 31.3206 42.4508 31.2452 43.0417 31.3384L65.0982 34.8182C65.6059 34.8983 66.0879 35.1005 66.5044 35.4081C66.9209 35.7158 67.2599 36.12 67.4938 36.5877C67.7276 37.0554 67.8495 37.5732 67.8494 38.0985C67.8493 38.6237 67.7272 39.1414 67.4934 39.609L57.3328 59.9213C57.0599 60.4641 56.646 60.9194 56.1364 61.2373C55.6269 61.5552 55.0415 61.7233 54.4446 61.7231C53.8477 61.723 53.2623 61.5547 52.7529 61.2367C52.2435 60.9185 51.8297 60.463 51.5571 59.9202Z" fill="#1DACE3"/>
<path d="M64.459 34.7157L53.464 32.981L39.9645 36.7278L45.3528 47.5032L57.9705 56.4036C58.2489 56.5977 58.5551 56.7465 58.8781 56.8444L63.6707 47.2638L64.459 34.7157Z" fill="#001A49"/>
<path d="M120.148 37.4968C120.148 37.079 120.269 36.6706 120.497 36.3233C120.724 35.9759 121.046 35.7052 121.424 35.5453C121.802 35.3854 122.217 35.3436 122.618 35.4251C123.019 35.5066 123.387 35.7078 123.676 36.0032C123.965 36.2986 124.162 36.675 124.241 37.0847C124.321 37.4945 124.28 37.9192 124.124 38.3051C123.967 38.6911 123.702 39.021 123.363 39.2531C123.023 39.4852 122.623 39.6091 122.215 39.6091C121.668 39.6034 121.146 39.379 120.76 38.9841C120.373 38.5892 120.154 38.0552 120.148 37.4968ZM120.493 40.6416H123.938V52.3759H120.493V40.6416Z" fill="#181817"/>
<path d="M138.815 46.5087C138.855 47.2843 138.745 48.0604 138.49 48.7923C138.236 49.524 137.843 50.1973 137.333 50.7732C136.823 51.349 136.207 51.8161 135.52 52.1477C134.832 52.4792 134.088 52.6687 133.329 52.7051C132.691 52.7405 132.052 52.6305 131.461 52.3829C130.869 52.1352 130.339 51.7561 129.908 51.2731V57.0701H126.464V40.6415H129.908V41.7443C130.339 41.2614 130.869 40.8826 131.461 40.6351C132.053 40.3877 132.691 40.2778 133.329 40.3135C134.088 40.3497 134.832 40.539 135.519 40.8704C136.207 41.2019 136.823 41.6689 137.333 42.2447C137.843 42.8205 138.236 43.4935 138.49 44.2254C138.745 44.9571 138.855 45.7331 138.815 46.5087ZM135.372 46.5087C135.358 45.9593 135.186 45.4262 134.878 44.976C134.57 44.5259 134.138 44.1788 133.638 43.9781C133.137 43.7774 132.59 43.7321 132.064 43.8478C131.539 43.9635 131.058 44.2351 130.683 44.6285C130.307 45.0219 130.054 45.5199 129.954 46.0599C129.854 46.5999 129.912 47.158 130.121 47.6644C130.33 48.1708 130.681 48.6029 131.129 48.9068C131.577 49.2107 132.102 49.3726 132.64 49.3726C133.009 49.3897 133.378 49.3266 133.721 49.1878C134.065 49.0488 134.376 48.8372 134.634 48.5668C134.892 48.2963 135.091 47.9731 135.218 47.6184C135.345 47.2637 135.398 46.8855 135.372 46.5087Z" fill="#181817"/>
<path d="M149.441 48.8535C149.441 51.5528 147.145 52.7028 144.665 52.7028C143.664 52.7954 142.658 52.5787 141.778 52.0806C140.898 51.5826 140.184 50.8261 139.73 49.909L142.714 48.1732C142.835 48.5971 143.095 48.9656 143.45 49.217C143.805 49.4684 144.234 49.5875 144.665 49.5545C145.492 49.5545 145.904 49.2955 145.904 48.827C145.904 47.5355 140.257 48.2169 140.257 44.1558C140.257 41.5981 142.368 40.3077 144.761 40.3077C145.659 40.2789 146.547 40.4966 147.334 40.9382C148.122 41.3797 148.779 42.0289 149.237 42.8183L146.299 44.4379C146.171 44.1298 145.956 43.8673 145.683 43.6831C145.409 43.4988 145.089 43.4011 144.761 43.4019C144.164 43.4019 143.797 43.6321 143.797 44.0591C143.794 45.4059 149.441 44.5138 149.441 48.8535Z" fill="#181817"/>
<path d="M162.027 40.6416V52.3759H158.584V51.2709C158.186 51.7577 157.681 52.1412 157.11 52.3902C156.54 52.6391 155.919 52.7462 155.3 52.7028C152.982 52.7028 151.008 51.013 151.008 47.844V40.6416H154.451V47.3307C154.422 47.6104 154.453 47.8932 154.542 48.1593C154.631 48.4255 154.775 48.6687 154.966 48.872C155.156 49.0753 155.387 49.2337 155.642 49.3362C155.899 49.4389 156.174 49.4831 156.449 49.4659C157.711 49.4659 158.588 48.7154 158.588 47.0486V40.6416H162.027Z" fill="#181817"/>
<path d="M181.77 45.1699V52.3758H178.326V45.4761C178.326 44.3031 177.774 43.5515 176.673 43.5515C175.524 43.5515 174.882 44.3734 174.882 45.7581V52.3758H171.438V45.4761C171.438 44.3031 170.887 43.5515 169.785 43.5515C168.637 43.5515 167.994 44.3734 167.994 45.7581V52.3758H164.551V40.6415H168V41.7166C168.357 41.2379 168.825 40.8582 169.362 40.6122C169.9 40.3664 170.49 40.262 171.076 40.3088C171.665 40.2794 172.253 40.4065 172.78 40.6779C173.307 40.9492 173.756 41.3554 174.084 41.857C174.466 41.3323 174.971 40.9149 175.554 40.6441C176.136 40.3733 176.776 40.258 177.414 40.3088C180.049 40.3134 181.77 42.2369 181.77 45.1699Z" fill="#181817"/>
<path d="M184.682 40.569C186.094 40.569 187.238 39.3991 187.238 37.956C187.238 36.5129 186.094 35.343 184.682 35.343C183.27 35.343 182.126 36.5129 182.126 37.956C182.126 39.3991 183.27 40.569 184.682 40.569Z" fill="#F6D88C"/>
<path d="M73.1325 35.2439H76.5772V52.3758H73.1325V35.2439ZM78.5275 46.5086C78.5238 45.2783 78.8772 44.0746 79.543 43.0499C80.2089 42.0251 81.1573 41.2253 82.268 40.7519C83.3789 40.2784 84.6021 40.1525 85.783 40.3901C86.9638 40.6278 88.0491 41.2182 88.9014 42.0868C89.7537 42.9553 90.3348 44.0628 90.5709 45.2691C90.8071 46.4755 90.6878 47.7263 90.2282 48.8632C89.7685 50.0001 88.9891 50.9721 87.9887 51.656C86.9883 52.3399 85.8119 52.705 84.6084 52.705C83.8091 52.7136 83.0161 52.5595 82.2757 52.2515C81.5354 51.9434 80.8625 51.4876 80.2964 50.9108C79.7302 50.3339 79.2822 49.6475 78.9785 48.8916C78.6748 48.1358 78.5216 47.3257 78.5275 46.5086ZM87.2524 46.5086C87.2389 45.9779 87.0727 45.4631 86.7744 45.0285C86.4762 44.594 86.0592 44.2589 85.5757 44.0653C85.092 43.8718 84.5634 43.8282 84.0558 43.9402C83.5482 44.0521 83.0841 44.3146 82.7216 44.6947C82.3591 45.0749 82.1144 45.5559 82.0179 46.0774C81.9215 46.5991 81.9776 47.1382 82.1794 47.6274C82.3811 48.1165 82.7195 48.534 83.1521 48.8276C83.5848 49.1213 84.0925 49.2779 84.6117 49.2782C84.9674 49.2885 85.3213 49.2234 85.651 49.087C85.9808 48.9507 86.2793 48.7459 86.5279 48.4856C86.7764 48.2255 86.9695 47.9155 87.095 47.5752C87.2204 47.2349 87.2756 46.8717 87.2569 46.5086H87.2524ZM104.424 40.638V51.7864C104.424 55.7289 101.416 57.3946 98.3634 57.3946C97.2889 57.4775 96.2127 57.2563 95.2528 56.7554C94.2931 56.2545 93.4867 55.4931 92.9222 54.5548L95.8601 52.8178C96.0973 53.3075 96.4751 53.7115 96.943 53.9759C97.4108 54.2402 97.9464 54.3522 98.4783 54.297C98.8178 54.3443 99.1632 54.3132 99.4894 54.2058C99.8155 54.0984 100.114 53.9177 100.362 53.6767C100.611 53.4357 100.803 53.1408 100.926 52.8136C101.048 52.4864 101.096 52.1353 101.068 51.7864V50.7067C100.665 51.2109 100.151 51.6115 99.5694 51.8763C98.9872 52.1412 98.3525 52.263 97.7159 52.2319C96.2008 52.1837 94.7633 51.5346 93.7082 50.4219C92.6531 49.3093 92.063 47.8205 92.063 46.2709C92.063 44.7212 92.6531 43.2325 93.7082 42.1198C94.7633 41.0072 96.2008 40.358 97.7159 40.3099C98.3525 40.2788 98.9872 40.4005 99.5694 40.6654C100.151 40.9303 100.665 41.3309 101.068 41.8352V40.638H104.424ZM101.073 46.2704C101.095 45.7035 100.952 45.1428 100.66 44.6602C100.369 44.1775 99.9426 43.795 99.4367 43.5619C98.9308 43.3288 98.3682 43.2557 97.8214 43.3521C97.2746 43.4484 96.7684 43.7097 96.368 44.1025C95.9676 44.4952 95.6912 45.0014 95.5746 45.5559C95.4578 46.1105 95.506 46.688 95.7129 47.2144C95.9198 47.7407 96.2761 48.1917 96.7358 48.5094C97.1954 48.8271 97.7376 48.997 98.2925 48.9973C98.6543 49.0232 99.0174 48.9715 99.3585 48.8455C99.6996 48.7194 100.011 48.5218 100.273 48.2652C100.535 48.0087 100.741 47.699 100.879 47.3561C101.017 47.013 101.083 46.6443 101.073 46.2738V46.2704ZM106.374 46.5006C106.371 45.2703 106.724 44.0666 107.39 43.0419C108.056 42.017 109.004 41.2172 110.115 40.7438C111.226 40.2703 112.449 40.1444 113.63 40.3821C114.811 40.6197 115.896 41.2101 116.748 42.0787C117.601 42.9472 118.182 44.0547 118.418 45.2611C118.654 46.4674 118.535 47.7182 118.075 48.8552C117.615 49.9921 116.836 50.9641 115.835 51.648C114.835 52.3318 113.659 52.6969 112.455 52.6969C111.657 52.7056 110.864 52.5517 110.124 52.2441C109.385 51.9366 108.712 51.4815 108.146 50.9055C107.58 50.3295 107.132 49.6441 106.828 48.8891C106.523 48.1342 106.369 47.325 106.374 46.5086V46.5006ZM115.099 46.5006C115.086 45.9696 114.92 45.4543 114.621 45.0193C114.323 44.5844 113.906 44.2491 113.422 44.0553C112.938 43.8614 112.409 43.8178 111.901 43.9298C111.393 44.0417 110.929 44.3044 110.566 44.6847C110.204 45.0651 109.959 45.5464 109.862 46.0683C109.766 46.5902 109.822 47.1298 110.024 47.6191C110.226 48.1085 110.565 48.5262 110.998 48.8199C111.431 49.1136 111.939 49.2701 112.459 49.2701C112.813 49.2797 113.166 49.2144 113.494 49.0782C113.823 48.9421 114.121 48.7379 114.369 48.4786C114.617 48.2194 114.809 47.9106 114.935 47.5716C115.061 47.2326 115.117 46.8707 115.099 46.5086V46.5006Z" fill="#181817"/>
<rect opacity="0.1" x="0.698914" y="0.5" width="223.298" height="90.5502" stroke="#2E4D59"/>
</svg>
